name ./resultDataOpenSim/trcMotMarkerGrf/sub09/grf-15-06.mot
datacolumns 19
datarows 27
range 1.50400000 1.60800000
endheader

                time	     ground_force_vx	     ground_force_vy	     ground_force_vz	     ground_force_px	     ground_force_py	     ground_force_pz	   l_ground_force_vx	   l_ground_force_vy	   l_ground_force_vz	   l_ground_force_px	   l_ground_force_py	   l_ground_force_pz	     ground_torque_x	     ground_torque_y	     ground_torque_z	   l_ground_torque_x	   l_ground_torque_y	   l_ground_torque_z	
          1.50400000	        -19.69557352	        400.91224354	        -22.20690969	          1.00344823	          0.00000000	          0.04605056	          0.00000000	          0.00000000	          0.00000000	          0.00000000	          0.00000000	          0.00000000	          0.00000000	          1.25790325	          0.00000000	          0.00000000	          0.00000000	          0.00000000	
          1.50800000	        -18.73950503	        397.03556154	        -18.54531216	          1.00374304	          0.00000000	          0.04574603	          0.00000000	          0.00000000	          0.00000000	          0.00000000	          0.00000000	          0.00000000	          0.00000000	          1.47612074	          0.00000000	          0.00000000	          0.00000000	          0.00000000	
          1.51200000	        -17.64677471	        393.67123691	        -14.11187618	          1.00400265	          0.00000000	          0.04538689	          0.00000000	          0.00000000	          0.00000000	          0.00000000	          0.00000000	          0.00000000	          0.00000000	          1.73876586	          0.00000000	          0.00000000	          0.00000000	          0.00000000	
          1.51600000	        -16.44673914	        390.77905863	         -9.73629188	          1.00424907	          0.00000000	          0.04500673	          0.00000000	          0.00000000	          0.00000000	          0.00000000	          0.00000000	          0.00000000	          0.00000000	          2.00614236	          0.00000000	          0.00000000	          0.00000000	          0.00000000	
          1.52000000	        -15.19717582	        388.32578840	         -6.21295375	          1.00449826	          0.00000000	          0.04463210	          0.00000000	          0.00000000	          0.00000000	          0.00000000	          0.00000000	          0.00000000	          0.00000000	          2.23724243	          0.00000000	          0.00000000	          0.00000000	          0.00000000	
          1.52400000	        -13.95747765	        386.28927285	         -4.15531616	          1.00475083	          0.00000000	          0.04429564	          0.00000000	          0.00000000	          0.00000000	          0.00000000	          0.00000000	          0.00000000	          0.00000000	          2.39724413	          0.00000000	          0.00000000	          0.00000000	          0.00000000	
          1.52800000	        -12.76257819	        384.65630385	         -3.88360021	          1.00501910	          0.00000000	          0.04402406	          0.00000000	          0.00000000	          0.00000000	          0.00000000	          0.00000000	          0.00000000	          0.00000000	          2.46506140	          0.00000000	          0.00000000	          0.00000000	          0.00000000	
          1.53200000	        -11.61403194	        383.42622371	         -5.36727034	          1.00529261	          0.00000000	          0.04382927	          0.00000000	          0.00000000	          0.00000000	          0.00000000	          0.00000000	          0.00000000	          0.00000000	          2.43847155	          0.00000000	          0.00000000	          0.00000000	          0.00000000	
          1.53600000	        -10.48522396	        382.62744626	         -8.23806047	          1.00555661	          0.00000000	          0.04370803	          0.00000000	          0.00000000	          0.00000000	          0.00000000	          0.00000000	          0.00000000	          0.00000000	          2.33469810	          0.00000000	          0.00000000	          0.00000000	          0.00000000	
          1.54000000	         -9.32521335	        382.33618107	        -11.87261598	          1.00580255	          0.00000000	          0.04363819	          0.00000000	          0.00000000	          0.00000000	          0.00000000	          0.00000000	          0.00000000	          0.00000000	          2.18603137	          0.00000000	          0.00000000	          0.00000000	          0.00000000	
          1.54400000	         -8.06403200	        382.66878160	        -15.52977802	          1.00600966	          0.00000000	          0.04358191	          0.00000000	          0.00000000	          0.00000000	          0.00000000	          0.00000000	          0.00000000	          0.00000000	          2.03212777	          0.00000000	          0.00000000	          0.00000000	          0.00000000	
          1.54800000	         -6.63174929	        383.74786518	        -18.49956583	          1.00615500	          0.00000000	          0.04350163	          0.00000000	          0.00000000	          0.00000000	          0.00000000	          0.00000000	          0.00000000	          0.00000000	          1.91173933	          0.00000000	          0.00000000	          0.00000000	          0.00000000	
          1.55200000	         -4.98851438	        385.67428342	        -20.21981090	          1.00621903	          0.00000000	          0.04336726	          0.00000000	          0.00000000	          0.00000000	          0.00000000	          0.00000000	          0.00000000	          0.00000000	          1.85615858	          0.00000000	          0.00000000	          0.00000000	          0.00000000	
          1.55600000	         -3.14468522	        388.51724909	        -20.35325997	          1.00619297	          0.00000000	          0.04316141	          0.00000000	          0.00000000	          0.00000000	          0.00000000	          0.00000000	          0.00000000	          0.00000000	          1.88520034	          0.00000000	          0.00000000	          0.00000000	          0.00000000	
          1.56000000	         -1.15432872	        392.30823882	        -18.83438984	          1.00609113	          0.00000000	          0.04288528	          0.00000000	          0.00000000	          0.00000000	          0.00000000	          0.00000000	          0.00000000	          0.00000000	          2.00529247	          0.00000000	          0.00000000	          0.00000000	          0.00000000	
          1.56400000	          0.90924484	        397.02823673	        -15.88247592	          1.00593397	          0.00000000	          0.04255840	          0.00000000	          0.00000000	          0.00000000	          0.00000000	          0.00000000	          0.00000000	          0.00000000	          2.20897353	          0.00000000	          0.00000000	          0.00000000	          0.00000000	
          1.56800000	          2.97675980	        402.60957560	        -11.96651533	          1.00573792	          0.00000000	          0.04221457	          0.00000000	          0.00000000	          0.00000000	          0.00000000	          0.00000000	          0.00000000	          0.00000000	          2.47566813	          0.00000000	          0.00000000	          0.00000000	          0.00000000	
          1.57200000	          4.99980796	        408.97401342	         -7.72136146	          1.00553384	          0.00000000	          0.04189034	          0.00000000	          0.00000000	          0.00000000	          0.00000000	          0.00000000	          0.00000000	          0.00000000	          2.77425562	          0.00000000	          0.00000000	          0.00000000	          0.00000000	
          1.57600000	          6.96571652	        416.07169411	         -3.83775302	          1.00534630	          0.00000000	          0.04161146	          0.00000000	          0.00000000	          0.00000000	          0.00000000	          0.00000000	          0.00000000	          0.00000000	          3.06790716	          0.00000000	          0.00000000	          0.00000000	          0.00000000	
          1.58000000	          8.91082277	        423.87551831	         -0.94340409	          1.00517079	          0.00000000	          0.04139613	          0.00000000	          0.00000000	          0.00000000	          0.00000000	          0.00000000	          0.00000000	          0.00000000	          3.32083784	          0.00000000	          0.00000000	          0.00000000	          0.00000000	
          1.58400000	         10.92536970	        432.34766000	          0.51335735	          1.00498997	          0.00000000	          0.04125884	          0.00000000	          0.00000000	          0.00000000	          0.00000000	          0.00000000	          0.00000000	          0.00000000	          3.50552900	          0.00000000	          0.00000000	          0.00000000	          0.00000000	
          1.58800000	         13.14069526	        441.42113747	          0.34630683	          1.00479070	          0.00000000	          0.04120596	          0.00000000	          0.00000000	          0.00000000	          0.00000000	          0.00000000	          0.00000000	          0.00000000	          3.60832505	          0.00000000	          0.00000000	          0.00000000	          0.00000000	
          1.59200000	         15.69619838	        451.00865457	         -1.34266587	          1.00454239	          0.00000000	          0.04123810	          0.00000000	          0.00000000	          0.00000000	          0.00000000	          0.00000000	          0.00000000	          0.00000000	          3.63160294	          0.00000000	          0.00000000	          0.00000000	          0.00000000	
          1.59600000	         18.69936435	        461.02573099	         -4.19361199	          1.00422847	          0.00000000	          0.04135203	          0.00000000	          0.00000000	          0.00000000	          0.00000000	          0.00000000	          0.00000000	          0.00000000	          3.59192399	          0.00000000	          0.00000000	          0.00000000	          0.00000000	
          1.60000000	         22.20341574	        471.40593937	         -7.67599613	          1.00384211	          0.00000000	          0.04153780	          0.00000000	          0.00000000	          0.00000000	          0.00000000	          0.00000000	          0.00000000	          0.00000000	          3.51511683	          0.00000000	          0.00000000	          0.00000000	          0.00000000	
          1.60400000	         26.21225629	        482.09609536	        -11.20960397	          1.00337276	          0.00000000	          0.04178350	          0.00000000	          0.00000000	          0.00000000	          0.00000000	          0.00000000	          0.00000000	          0.00000000	          3.43022289	          0.00000000	          0.00000000	          0.00000000	          0.00000000	
          1.60800000	         30.69520717	        493.04827582	        -14.26879981	          1.00282909	          0.00000000	          0.04207229	          0.00000000	          0.00000000	          0.00000000	          0.00000000	          0.00000000	          0.00000000	          0.00000000	          3.36406185	          0.00000000	          0.00000000	          0.00000000	          0.00000000	
